<?xml version="1.0" encoding="UTF-8" standalone="no"?>
<!DOCTYPE svg PUBLIC "-//W3C//DTD SVG 1.1//EN" "http://www.w3.org/Graphics/SVG/1.1/DTD/svg11.dtd">
<svg version="1.1" xmlns="http://www.w3.org/2000/svg" xmlns:xlink="http://www.w3.org/1999/xlink" preserveAspectRatio="xMidYMid meet" viewBox="0 0 640 640" width="640" height="640"><defs><path d="M440.68 320.86C434.09 320.86 401.14 320.86 341.81 320.86L341.81 307.73C382.75 307.73 405.5 307.73 410.05 307.73C417.11 307.73 422.84 301.85 422.84 294.6C422.84 292.33 422.84 274.18 422.84 271.91C428.71 269.78 432.24 263.62 431.18 257.32C430.13 251.01 424.81 246.41 418.57 246.41C412.34 246.41 407.02 251.01 405.97 257.32C404.91 263.62 408.44 269.78 414.31 271.91C414.31 274.18 414.31 292.33 414.31 294.6C414.31 297.02 412.4 298.98 410.05 298.98C405.5 298.98 382.75 298.98 341.81 298.98L341.81 285.85C369.96 285.85 385.6 285.85 388.72 285.85C391.08 285.85 392.99 283.89 392.99 281.47C392.99 279.05 391.08 277.09 388.72 277.09C385.6 277.09 369.96 277.09 341.81 277.09L341.81 268.34C357.17 268.34 365.7 268.34 367.4 268.34C374.47 268.34 380.19 262.46 380.19 255.21C380.19 252.51 380.19 230.86 380.19 228.15C386.07 226.02 389.59 219.86 388.54 213.56C387.49 207.25 382.16 202.65 375.93 202.65C369.7 202.65 364.37 207.25 363.32 213.56C362.27 219.86 365.79 226.02 371.67 228.15C371.67 230.86 371.67 252.51 371.67 255.21C371.67 257.63 369.76 259.59 367.4 259.59C364.73 259.59 343.36 259.59 340.69 259.59C339.22 256.79 336.29 255.14 333.2 255.36C297.27 257.69 269.29 288.28 269.29 325.23C269.29 362.18 297.27 392.77 333.2 395.11C333.25 395.11 333.65 395.11 333.7 395.11C336.62 395.13 339.3 393.5 340.69 390.87C343.36 390.87 364.73 390.87 367.4 390.87C369.76 390.87 371.67 392.83 371.67 395.25C371.67 397.96 371.67 419.61 371.67 422.31C365.79 424.44 362.27 430.61 363.32 436.91C364.37 443.21 369.7 447.82 375.93 447.82C382.16 447.82 387.49 443.21 388.54 436.91C389.59 430.61 386.07 424.44 380.19 422.31C380.19 419.61 380.19 397.96 380.19 395.25C380.19 388 374.47 382.12 367.4 382.12C365.7 382.12 357.17 382.12 341.81 382.12L341.81 373.37C369.96 373.37 385.6 373.37 388.72 373.37C391.08 373.37 392.99 371.41 392.99 368.99C392.99 366.58 391.08 364.62 388.72 364.62C385.6 364.62 369.96 364.62 341.81 364.62L341.81 351.49C382.75 351.49 405.5 351.49 410.05 351.49C412.4 351.49 414.31 353.45 414.31 355.87C414.31 358.13 414.31 376.28 414.31 378.55C408.44 380.68 404.91 386.85 405.97 393.15C407.02 399.45 412.34 404.06 418.58 404.06C424.81 404.06 430.13 399.45 431.18 393.15C432.24 386.85 428.71 380.68 422.84 378.55C422.84 376.28 422.84 358.13 422.84 355.87C422.84 348.61 417.11 342.74 410.05 342.74C405.5 342.74 382.75 342.74 341.81 342.74L341.81 329.61C401.14 329.61 434.09 329.61 440.68 329.61C442.86 335.89 449.28 339.49 455.61 337.97C461.93 336.46 466.15 330.32 465.4 323.7C464.65 317.08 459.18 312.09 452.69 312.1C447.29 312.13 442.48 315.63 440.68 320.86ZM422.84 259.59C422.84 262.01 420.93 263.97 418.58 263.97C416.22 263.97 414.31 262.01 414.31 259.59C414.31 257.17 416.22 255.21 418.58 255.21C420.93 255.21 422.84 257.17 422.84 259.59ZM380.19 215.83C380.19 218.25 378.29 220.21 375.93 220.21C373.57 220.21 371.67 218.25 371.67 215.83C371.67 213.41 373.57 211.45 375.93 211.45C378.29 211.45 380.19 213.41 380.19 215.83ZM371.67 434.63C371.67 432.22 373.58 430.26 375.93 430.26C378.29 430.26 380.19 432.22 380.19 434.63C380.19 437.05 378.29 439.01 375.93 439.01C373.58 439.01 371.67 437.05 371.67 434.63ZM414.31 390.87C414.31 388.46 416.22 386.5 418.58 386.5C420.93 386.5 422.84 388.46 422.84 390.87C422.84 393.29 420.93 395.25 418.58 395.25C416.22 395.25 414.31 393.29 414.31 390.87ZM333.29 264.12C333.29 276.35 333.29 374.12 333.29 386.34C302.06 384.01 277.88 357.35 277.85 325.23C277.88 293.11 302.06 266.46 333.29 264.12ZM448.43 325.23C448.43 322.81 450.34 320.86 452.69 320.86C455.05 320.86 456.96 322.81 456.96 325.23C456.96 327.65 455.05 329.61 452.69 329.61C450.34 329.61 448.43 327.65 448.43 325.23Z" id="b2S2a41f1z"></path><path d="M203.85 312.84C202.97 321.01 202.97 329.26 203.83 337.43C204.43 342.91 208.5 347.31 213.8 348.22C215.15 348.44 226.01 350.27 227.37 350.5C229.97 361.88 234.37 372.76 240.39 382.69C239.59 383.84 233.2 392.99 232.4 394.14C229.22 398.57 229.29 404.63 232.59 408.97C235.13 412.16 237.83 415.21 240.69 418.11C243.31 420.8 246.2 423.51 249.68 426.51C253.88 429.82 259.7 429.89 263.97 426.68C265.09 425.85 274.06 419.25 275.18 418.42C284.85 424.6 295.44 429.11 306.53 431.79C306.75 433.18 308.53 444.34 308.75 445.73C309.6 451.1 313.79 455.26 319.05 455.93C321.48 456.21 323.95 456.41 326.44 456.52C326.48 456.52 326.76 456.52 326.8 456.52C329.02 456.51 331.16 455.64 332.77 454.07C334.45 452.42 335.39 450.15 335.39 447.77C335.39 444.27 335.39 416.21 335.39 412.7C335.36 408.02 331.76 404.18 327.19 403.97C286.38 401.79 254.37 367.19 254.37 325.24C254.37 283.3 286.38 248.7 327.19 246.52C331.76 246.31 335.37 242.46 335.39 237.76C335.39 234.26 335.39 206.22 335.39 202.71C335.39 200.33 334.45 198.06 332.77 196.41C331.09 194.73 328.8 193.84 326.46 193.96C323.98 194.06 321.52 194.24 318.99 194.51C313.74 195.2 309.56 199.38 308.76 204.76C308.54 206.15 306.76 217.3 306.54 218.69C295.45 221.37 284.86 225.88 275.19 232.06C274.07 231.23 265.1 224.65 263.98 223.82C259.67 220.59 253.79 220.68 249.58 224.06C246.49 226.66 243.53 229.41 240.71 232.32C237.81 235.23 235.08 238.32 232.54 241.56C229.28 245.87 229.2 251.87 232.33 256.28C233.13 257.43 239.56 266.65 240.37 267.8C234.36 277.73 229.97 288.6 227.37 299.99C226.46 300.14 221.94 300.9 213.79 302.27C207.6 305.72 204.29 309.24 203.85 312.84ZM249.09 270.06C250.07 268.55 250.03 266.58 249 265.11C248.02 263.71 240.24 252.56 239.27 251.17C238.37 249.95 238.34 248.28 239.21 247.03C241.54 244.06 244.05 241.23 246.72 238.56C249.3 235.88 252.02 233.33 254.86 230.93C256.08 229.97 257.77 229.97 259 230.93C260.35 231.93 271.2 239.92 272.56 240.91C273.99 241.97 275.92 242.01 277.39 241.01C287.64 234.05 299.1 229.17 311.13 226.62C312.86 226.26 314.2 224.83 314.48 223.04C314.75 221.36 316.9 207.88 317.16 206.19C317.36 204.68 318.49 203.47 319.95 203.22C322.21 202.98 324.49 202.81 326.86 202.71C326.85 206.22 326.77 234.26 326.76 237.77C281.36 240.15 245.75 278.63 245.77 325.28C245.8 371.93 281.45 410.37 326.86 412.7C326.85 416.21 326.8 444.26 326.8 447.77C324.51 447.68 322.24 447.49 320 447.23C318.53 447.01 317.38 445.82 317.17 444.31C316.9 442.62 314.75 429.14 314.48 427.45C314.2 425.66 312.87 424.24 311.13 423.87C299.1 421.32 287.64 416.44 277.39 409.48C275.91 408.48 273.99 408.52 272.56 409.58C271.2 410.58 260.34 418.57 258.98 419.57C257.83 420.5 256.22 420.54 255.01 419.68C251.88 416.97 249.16 414.43 246.72 411.92C244.1 409.27 241.62 406.48 239.28 403.57C238.36 402.31 238.36 400.58 239.28 399.32C240.25 397.93 248.03 386.79 249 385.39C250.03 383.92 250.07 381.95 249.09 380.44C242.32 369.91 237.56 358.15 235.08 345.79C234.73 344.02 233.34 342.65 231.6 342.36C229.96 342.08 216.82 339.87 215.18 339.59C213.65 339.33 212.48 338.06 212.31 336.48C211.51 328.96 211.52 321.36 212.33 313.84C212.55 312.32 213.71 311.14 215.18 310.92C216.82 310.65 229.95 308.44 231.59 308.17C233.34 307.87 234.73 306.5 235.08 304.71C237.56 292.35 242.32 280.59 249.09 270.06Z" id="gDS6Oo1lT"></path></defs><g><g><g><use xlink:href="#b2S2a41f1z" opacity="1" fill="#e69a37" fill-opacity="1"></use><g><use xlink:href="#b2S2a41f1z" opacity="1" fill-opacity="0" stroke="#000000" stroke-width="1" stroke-opacity="0"></use></g></g><g><use xlink:href="#gDS6Oo1lT" opacity="1" fill="#e69a37" fill-opacity="1"></use><g><use xlink:href="#gDS6Oo1lT" opacity="1" fill-opacity="0" stroke="#000000" stroke-width="1" stroke-opacity="0"></use></g></g></g></g></svg>